<svg width="440.674" height="75"
viewBox="0 0 440.674 75"
xmlns="http://www.w3.org/2000/svg"><g
id="svgGroup" stroke-linecap="round" fill-rule="evenodd" font-size="9pt" stroke="currentColor" stroke-width="0.25mm"
fill="currentColor" style="stroke:#000;stroke-width:0.25mm;fill:#000">
<path d="M 9.375 75 L 0 75 L 0 0 L 13.965 0 L 59.326 61.182 L 104.004 0 L 117.969 0 L 117.969 75 L 108.594 75 L 108.594 8.496 L 63.818 70.068 L 55.322 70.068 L 9.375 8.496 L 9.375 75 Z M 211.914 75 L 136.914 75 L 136.914 0 L 210.547 0 L 210.547 7.813 L 146.289 7.813 L 146.289 32.813 L 207.861 32.813 L 207.861 40.625 L 146.289 40.625 L 146.289 67.188 L 211.914 67.188 L 211.914 75 Z M 355.469 75 L 346.094 75 L 346.094 0 L 355.859 0 L 431.201 63.428 L 431.299 63.428 L 431.299 0 L 440.674 0 L 440.674 75 L 430.908 75 L 355.566 11.035 L 355.469 11.035 L 355.469 75 Z M 266.504 75 L 257.129 75 L 257.129 7.813 L 219.629 7.813 L 219.629 0 L 304.004 0 L 304.004 7.813 L 266.504 7.813 L 266.504 75 Z M 327.344 75 L 317.969 75 L 317.969 0 L 327.344 0 L 327.344 75 Z"
vector-effect="non-scaling-stroke"/></g></svg>